<svg version="1.1" viewBox="0.0 0.0 411.66141732283467 244.51706036745406" fill="#eeeeee" stroke="none" stroke-linecap="square" stroke-miterlimit="10" xmlns:xlink="http://www.w3.org/1999/xlink" xmlns="http://www.w3.org/2000/svg">
<clipPath id="p.0"><path d="m0 0l411.6614 0l0 244.51706l-411.6614 0l0 -244.51706z" clip-rule="nonzero"/>
</clipPath>
<g clip-path="url(#p.0)">
<path fill= "#eeeeee" fill-opacity="0.0" d="m0 0l411.6614 0l0 244.51706l-411.6614 0z" fill-rule="evenodd"/>
<!-- below is the background-->
<path fill="none" d="m-1.2257218 -5.687664l414.11023 0l0 262.14172l-414.11023 0z" fill-rule="evenodd"/>
<path fill="#6d9eeb" d="m70.82536 65.86882l0 45.734375l-4.640625 0l0 -36.578125l-17.953125 30.765625l-2.296875 0l-17.968748 -30.578125l0 36.390625l-4.625 0l0 -45.734375l3.984375 0l19.859373 33.90625l19.65625 -33.90625l3.984375 0zm25.935226 11.109375q6.734375 0 10.328125 3.375q3.59375 3.359375 3.59375 9.953125l0 21.296875l-4.453125 0l0 -5.359375q-1.5625 2.6875 -4.609375 4.1875q-3.03125 1.5 -7.203125 1.5q-5.75 0 -9.15625 -2.734375q-3.390625 -2.75 -3.390625 -7.265625q0 -4.375 3.171875 -7.046875q3.171875 -2.6875 10.09375 -2.6875l10.90625 0l0 -2.09375q0 -4.4375 -2.484375 -6.75q-2.484375 -2.328125 -7.25 -2.328125q-3.265625 0 -6.28125 1.078125q-3.0 1.078125 -5.15625 2.984375l-2.09375 -3.46875q2.625 -2.21875 6.28125 -3.421875q3.65625 -1.21875 7.703125 -1.21875zm-1.625 31.296875q3.921875 0 6.71875 -1.796875q2.8125 -1.796875 4.1875 -5.203125l0 -5.609375l-10.78125 0q-8.8125 0 -8.8125 6.140625q0 3.0 2.28125 4.734375q2.28125 1.734375 6.40625 1.734375zm46.24672 1.234375q-1.3125 1.171875 -3.234375 1.796875q-1.921875 0.625 -4.015625 0.625q-4.828125 0 -7.453125 -2.609375q-2.609375 -2.625 -2.609375 -7.390625l0 -20.765625l-6.140625 0l0 -3.921875l6.140625 0l0 -7.515625l4.640625 0l0 7.515625l10.453125 0l0 3.921875l-10.453125 0l0 20.5q0 3.078125 1.53125 4.6875q1.53125 1.59375 4.40625 1.59375q1.4375 0 2.78125 -0.453125q1.34375 -0.46875 2.328125 -1.3125l1.625 3.328125zm25.929474 -32.53125q6.46875 0 10.296875 3.765625q3.828125 3.75 3.828125 10.9375l0 19.921875l-4.640625 0l0 -19.46875q0 -5.359375 -2.6875 -8.15625q-2.671875 -2.8125 -7.640625 -2.8125q-5.546875 0 -8.78125 3.296875q-3.234375 3.296875 -3.234375 9.109375l0 18.03125l-4.640625 0l0 -48.468746l4.640625 0l0 20.109371q1.890625 -3.0 5.21875 -4.625q3.328125 -1.640625 7.640625 -1.640625zm69.58652 0q6.46875 0 10.15625 3.734375q3.6875 3.71875 3.6875 10.96875l0 19.921875l-4.640625 0l0 -19.46875q0 -5.359375 -2.578125 -8.15625q-2.578125 -2.8125 -7.28125 -2.8125q-5.359375 0 -8.4375 3.296875q-3.0625 3.296875 -3.0625 9.109375l0 18.03125l-4.640625 0l0 -19.46875q0 -5.359375 -2.578125 -8.15625q-2.578125 -2.8125 -7.34375 -2.8125q-5.296875 0 -8.40625 3.296875q-3.09375 3.296875 -3.09375 9.109375l0 18.03125l-4.640625 0l0 -34.359375l4.4375 0l0 6.265625q1.828125 -3.140625 5.09375 -4.828125q3.265625 -1.703125 7.515625 -1.703125q4.3125 0 7.484375 1.828125q3.171875 1.828125 4.734375 5.421875q1.890625 -3.390625 5.453125 -5.3125q3.5625 -1.9375 8.140625 -1.9375zm38.469406 0q6.734375 0 10.328125 3.375q3.59375 3.359375 3.59375 9.953125l0 21.296875l-4.453125 0l0 -5.359375q-1.5625 2.6875 -4.609375 4.1875q-3.03125 1.5 -7.203125 1.5q-5.75 0 -9.15625 -2.734375q-3.390625 -2.75 -3.390625 -7.265625q0 -4.375 3.171875 -7.046875q3.171875 -2.6875 10.09375 -2.6875l10.90625 0l0 -2.09375q0 -4.4375 -2.484375 -6.75q-2.484375 -2.328125 -7.25 -2.328125q-3.265625 0 -6.28125 1.078125q-3.0 1.078125 -5.15625 2.984375l-2.09375 -3.46875q2.625 -2.21875 6.28125 -3.421875q3.65625 -1.21875 7.703125 -1.21875zm-1.625 31.296875q3.921875 0 6.71875 -1.796875q2.8125 -1.796875 4.1875 -5.203125l0 -5.609375l-10.78125 0q-8.8125 0 -8.8125 6.140625q0 3.0 2.28125 4.734375q2.28125 1.734375 6.40625 1.734375zm45.652985 -31.296875q6.46875 0 10.296875 3.765625q3.828125 3.75 3.828125 10.9375l0 19.921875l-4.640625 0l0 -19.46875q0 -5.359375 -2.6875 -8.15625q-2.671875 -2.8125 -7.640625 -2.8125q-5.546875 0 -8.78125 3.296875q-3.234375 3.296875 -3.234375 9.109375l0 18.03125l-4.640625 0l0 -34.359375l4.4375 0l0 6.328125q1.890625 -3.125 5.25 -4.859375q3.375 -1.734375 7.8125 -1.734375zm26.727142 0.265625l4.640625 0l0 34.359375l-4.640625 0l0 -34.359375zm2.359375 -7.515625q-1.4375 0 -2.421875 -0.96875q-0.984375 -0.984375 -0.984375 -2.359375q0 -1.3125 0.984375 -2.28125q0.984375 -0.9843712 2.421875 -0.9843712q1.4375 0 2.40625 0.9531212q0.984375 0.9375 0.984375 2.25q0 1.4375 -0.984375 2.421875q-0.96875 0.96875 -2.40625 0.96875zm27.229523 7.25q6.734375 0 10.328125 3.375q3.59375 3.359375 3.59375 9.953125l0 21.296875l-4.453125 0l0 -5.359375q-1.5625 2.6875 -4.609375 4.1875q-3.03125 1.5 -7.203125 1.5q-5.75 0 -9.15625 -2.734375q-3.390625 -2.75 -3.390625 -7.265625q0 -4.375 3.171875 -7.046875q3.171875 -2.6875 10.09375 -2.6875l10.90625 0l0 -2.09375q0 -4.4375 -2.484375 -6.75q-2.484375 -2.328125 -7.25 -2.328125q-3.265625 0 -6.28125 1.078125q-3.0 1.078125 -5.15625 2.984375l-2.09375 -3.46875q2.625 -2.21875 6.28125 -3.421875q3.65625 -1.21875 7.703125 -1.21875zm-1.625 31.296875q3.921875 0 6.71875 -1.796875q2.8125 -1.796875 4.1875 -5.203125l0 -5.609375l-10.78125 0q-8.8125 0 -8.8125 6.140625q0 3.0 2.28125 4.734375q2.28125 1.734375 6.40625 1.734375z" fill-rule="nonzero"/><path fill="#000000" fill-opacity="0.0" d="m366.51706 21.19685l46.362213 0l0 45.480312l-46.362213 0z" fill-rule="evenodd"/><path fill="#ff9900" d="m407.9858 46.235134l-12.40625 0l0 12.078125l-2.953125 0l0 -12.078125l-12.40625 0l0 -2.8125l12.40625 0l0 -12.15625l2.953125 0l0 12.15625l12.40625 0l0 2.8125z" fill-rule="nonzero"/></g>
</svg>